# xmcd
#
# Track frame offsets:
#	150
#	14340
#	28033
#	42308
#	53751
#	66290
#	77130
#	92184
#	105205
#	116880
#	132393
#	147407
#
# Disc length: 2146 seconds
#
# Revision: 1
# Processed by: cddbd v1.5.2PL0 Copyright (c) Steve Scherf et al.
# Submitted via: audiograbber 1.83.01
#
DISCID=a508600c
DTITLE=Back Porch Swing - Riding
DYEAR=2005
DGENRE=Bluegrass
TTITLE0=Not Getting' Love
TTITLE1=My Dream Is You
TTITLE2=Close Enough To Heaven
TTITLE3=Freight Of Love
TTITLE4=Ridin' Down The Fraser Canyon
TTITLE5=That Ain't The Way Bill Played It
TTITLE6=I'm Crazy' Bout My Baby
TTITLE7=My Notso Fred Astaire
TTITLE8=Francis The Pig
TTITLE9=Holding Up The Sky
TTITLE10=Grassland Rag
TTITLE11=Spiderman Theme
EXTD=Cam Neufeld =Fiddle\nJim Malmberg =Mandolin, Guitar, Vocals\nPenny Malmb
EXTD=erg =Guitar, Vocals\nKevin Jacobson =Bass
EXTT0=
EXTT1=
EXTT2=
EXTT3=
EXTT4=
EXTT5=
EXTT6=
EXTT7=
EXTT8=
EXTT9=
EXTT10=
EXTT11=
PLAYORDER=
